<svg width="120" height="26" viewBox="0 0 120 26" fill="none" xmlns="http://www.w3.org/2000/svg">
<path d="M0.295455 25V1.72727H15.2045V5.26136H4.51136V11.5795H14.1818V15.1136H4.51136V25H0.295455ZM18.8636 25V7.54545H22.9773V25H18.8636ZM20.9318 5.06818C20.2803 5.06818 19.7197 4.85227 19.25 4.42045C18.7803 3.98106 18.5455 3.45454 18.5455 2.84091C18.5455 2.2197 18.7803 1.69318 19.25 1.26136C19.7197 0.821969 20.2803 0.602272 20.9318 0.602272C21.5909 0.602272 22.1515 0.821969 22.6136 1.26136C23.0833 1.69318 23.3182 2.2197 23.3182 2.84091C23.3182 3.45454 23.0833 3.98106 22.6136 4.42045C22.1515 4.85227 21.5909 5.06818 20.9318 5.06818ZM31.321 1.72727V25H27.2074V1.72727H31.321ZM35.5511 25V7.54545H39.483V10.5114H39.6875C40.0511 9.51136 40.6534 8.73106 41.4943 8.17045C42.3352 7.60227 43.339 7.31818 44.5057 7.31818C45.6875 7.31818 46.6837 7.60606 47.4943 8.18182C48.3125 8.75 48.8883 9.52651 49.2216 10.5114H49.4034C49.7898 9.54167 50.4413 8.76894 51.358 8.19318C52.2822 7.60985 53.3769 7.31818 54.642 7.31818C56.2481 7.31818 57.5587 7.82576 58.5739 8.84091C59.589 9.85606 60.0966 11.3371 60.0966 13.2841V25H55.9716V13.9205C55.9716 12.8371 55.6837 12.0455 55.108 11.5455C54.5322 11.0379 53.8277 10.7841 52.9943 10.7841C52.0019 10.7841 51.2254 11.0947 50.6648 11.7159C50.1117 12.3295 49.8352 13.1288 49.8352 14.1136V25H45.8011V13.75C45.8011 12.8485 45.5284 12.1288 44.983 11.5909C44.4451 11.053 43.7405 10.7841 42.8693 10.7841C42.2784 10.7841 41.7405 10.9356 41.2557 11.2386C40.7708 11.5341 40.3845 11.9545 40.0966 12.5C39.8087 13.0379 39.6648 13.6667 39.6648 14.3864V25H35.5511Z" fill="white"/>
<path d="M64.4517 25V1.72727H73.3608C75.0426 1.72727 76.4403 1.99242 77.554 2.52273C78.6752 3.04545 79.5123 3.76136 80.0653 4.67045C80.6259 5.57954 80.9062 6.60985 80.9062 7.76136C80.9062 8.70833 80.7244 9.51894 80.3608 10.1932C79.9972 10.8598 79.5085 11.4015 78.8949 11.8182C78.2812 12.2348 77.5956 12.5341 76.8381 12.7159V12.9432C77.6638 12.9886 78.4555 13.2424 79.2131 13.7045C79.9782 14.1591 80.6032 14.803 81.0881 15.6364C81.5729 16.4697 81.8153 17.4773 81.8153 18.6591C81.8153 19.8636 81.5237 20.947 80.9403 21.9091C80.357 22.8636 79.4782 23.6174 78.304 24.1705C77.1297 24.7235 75.6525 25 73.8722 25H64.4517ZM68.6676 21.4773H73.2017C74.732 21.4773 75.8343 21.1856 76.5085 20.6023C77.1903 20.0114 77.5312 19.2538 77.5312 18.3295C77.5312 17.6402 77.3608 17.0189 77.0199 16.4659C76.679 15.9053 76.1941 15.4659 75.5653 15.1477C74.9366 14.822 74.1866 14.6591 73.3153 14.6591H68.6676V21.4773ZM68.6676 11.625H72.8381C73.5653 11.625 74.2206 11.4924 74.804 11.2273C75.3873 10.9545 75.8456 10.572 76.179 10.0795C76.5199 9.57955 76.6903 8.98864 76.6903 8.30682C76.6903 7.4053 76.3722 6.66288 75.7358 6.07954C75.107 5.49621 74.1714 5.20454 72.929 5.20454H68.6676V11.625ZM92.9148 25.3409C91.2102 25.3409 89.733 24.9659 88.483 24.2159C87.233 23.4659 86.2633 22.4167 85.5739 21.0682C84.892 19.7197 84.5511 18.1439 84.5511 16.3409C84.5511 14.5379 84.892 12.9583 85.5739 11.6023C86.2633 10.2462 87.233 9.19318 88.483 8.44318C89.733 7.69318 91.2102 7.31818 92.9148 7.31818C94.6193 7.31818 96.0966 7.69318 97.3466 8.44318C98.5966 9.19318 99.5625 10.2462 100.244 11.6023C100.934 12.9583 101.278 14.5379 101.278 16.3409C101.278 18.1439 100.934 19.7197 100.244 21.0682C99.5625 22.4167 98.5966 23.4659 97.3466 24.2159C96.0966 24.9659 94.6193 25.3409 92.9148 25.3409ZM92.9375 22.0455C93.8617 22.0455 94.6345 21.7917 95.2557 21.2841C95.8769 20.7689 96.339 20.0795 96.642 19.2159C96.9527 18.3523 97.108 17.3902 97.108 16.3295C97.108 15.2614 96.9527 14.2955 96.642 13.4318C96.339 12.5606 95.8769 11.8674 95.2557 11.3523C94.6345 10.8371 93.8617 10.5795 92.9375 10.5795C91.9905 10.5795 91.2027 10.8371 90.5739 11.3523C89.9527 11.8674 89.4867 12.5606 89.1761 13.4318C88.8731 14.2955 88.7216 15.2614 88.7216 16.3295C88.7216 17.3902 88.8731 18.3523 89.1761 19.2159C89.4867 20.0795 89.9527 20.7689 90.5739 21.2841C91.2027 21.7917 91.9905 22.0455 92.9375 22.0455ZM107.477 7.54545L111 13.9886L114.58 7.54545H118.932L113.67 16.2727L119.023 25H114.693L111 18.7159L107.341 25H102.977L108.295 16.2727L103.114 7.54545H107.477Z" fill="#AA0000"/>
</svg>
