<svg width="159" height="72" viewBox="0 0 159 72" fill="none" xmlns="http://www.w3.org/2000/svg">
<g filter="url(#filter0_d_1_70)">
<path d="M7 18C7 13.5817 10.5817 10 15 10H110C127.673 10 142 24.3269 142 42V50C142 54.4183 138.418 58 134 58H39C21.3269 58 7 43.6731 7 26V18Z" fill="#AA0000" shape-rendering="crispEdges"/>
<path d="M34.5227 40L31.3409 28.3636H32.7727L35.2045 37.8409H35.3182L37.7955 28.3636H39.3864L41.8636 37.8409H41.9773L44.4091 28.3636H45.8409L42.6591 40H41.2045L38.6364 30.7273H38.5455L35.9773 40H34.5227ZM49.1705 40.2045C48.6174 40.2045 48.1155 40.1004 47.6648 39.892C47.214 39.6799 46.8561 39.375 46.5909 38.9773C46.3258 38.5758 46.1932 38.0909 46.1932 37.5227C46.1932 37.0227 46.2917 36.6174 46.4886 36.3068C46.6856 35.9924 46.9489 35.7462 47.2784 35.5682C47.608 35.3902 47.9716 35.2576 48.3693 35.1705C48.7708 35.0795 49.1742 35.0076 49.5795 34.9545C50.1098 34.8864 50.5398 34.8352 50.8693 34.8011C51.2027 34.7633 51.4451 34.7008 51.5966 34.6136C51.7519 34.5265 51.8295 34.375 51.8295 34.1591V34.1136C51.8295 33.553 51.6761 33.1174 51.3693 32.8068C51.0663 32.4962 50.6061 32.3409 49.9886 32.3409C49.3485 32.3409 48.8466 32.4811 48.483 32.7614C48.1193 33.0417 47.8636 33.3409 47.7159 33.6591L46.4432 33.2045C46.6705 32.6742 46.9735 32.2614 47.3523 31.9659C47.7348 31.6667 48.1515 31.4583 48.6023 31.3409C49.0568 31.2197 49.5038 31.1591 49.9432 31.1591C50.2235 31.1591 50.5455 31.1932 50.9091 31.2614C51.2765 31.3258 51.6307 31.4602 51.9716 31.6648C52.3163 31.8693 52.6023 32.178 52.8295 32.5909C53.0568 33.0038 53.1705 33.5568 53.1705 34.25V40H51.8295V38.8182H51.7614C51.6705 39.0076 51.5189 39.2102 51.3068 39.4261C51.0947 39.642 50.8125 39.8258 50.4602 39.9773C50.108 40.1288 49.678 40.2045 49.1705 40.2045ZM49.375 39C49.9053 39 50.3523 38.8958 50.7159 38.6875C51.0833 38.4792 51.3598 38.2102 51.5455 37.8807C51.7348 37.5511 51.8295 37.2045 51.8295 36.8409V35.6136C51.7727 35.6818 51.6477 35.7443 51.4545 35.8011C51.2652 35.8542 51.0455 35.9015 50.7955 35.9432C50.5492 35.9811 50.3087 36.0152 50.0739 36.0455C49.8428 36.072 49.6553 36.0947 49.5114 36.1136C49.1629 36.1591 48.8371 36.233 48.5341 36.3352C48.2348 36.4337 47.9924 36.5833 47.8068 36.7841C47.625 36.9811 47.5341 37.25 47.5341 37.5909C47.5341 38.0568 47.7064 38.4091 48.0511 38.6477C48.3996 38.8826 48.8409 39 49.375 39ZM59.4134 31.2727V32.4091H54.8906V31.2727H59.4134ZM56.2088 29.1818H57.5497V37.5C57.5497 37.8788 57.6046 38.1629 57.7145 38.3523C57.8281 38.5379 57.9721 38.6629 58.1463 38.7273C58.3243 38.7879 58.5118 38.8182 58.7088 38.8182C58.8565 38.8182 58.9777 38.8106 59.0724 38.7955C59.1671 38.7765 59.2429 38.7614 59.2997 38.75L59.5724 39.9545C59.4815 39.9886 59.3546 40.0227 59.1918 40.0568C59.0289 40.0947 58.8224 40.1136 58.5724 40.1136C58.1937 40.1136 57.8224 40.0322 57.4588 39.8693C57.099 39.7064 56.7997 39.4583 56.5611 39.125C56.3262 38.7917 56.2088 38.3712 56.2088 37.8636V29.1818ZM64.8821 40.1818C64.0639 40.1818 63.3594 39.9886 62.7685 39.6023C62.1776 39.2159 61.723 38.6837 61.4048 38.0057C61.0866 37.3277 60.9276 36.553 60.9276 35.6818C60.9276 34.7955 61.0904 34.0133 61.4162 33.3352C61.7457 32.6534 62.2041 32.1212 62.7912 31.7386C63.3821 31.3523 64.0715 31.1591 64.8594 31.1591C65.473 31.1591 66.026 31.2727 66.5185 31.5C67.0109 31.7273 67.4143 32.0455 67.7287 32.4545C68.0431 32.8636 68.2382 33.3409 68.3139 33.8864H66.973C66.8707 33.4886 66.6435 33.1364 66.2912 32.8295C65.9427 32.5189 65.473 32.3636 64.8821 32.3636C64.3594 32.3636 63.901 32.5 63.5071 32.7727C63.117 33.0417 62.812 33.4223 62.5923 33.9148C62.3764 34.4034 62.2685 34.9773 62.2685 35.6364C62.2685 36.3106 62.3745 36.8977 62.5866 37.3977C62.8026 37.8977 63.1056 38.286 63.4957 38.5625C63.8897 38.839 64.3518 38.9773 64.8821 38.9773C65.2306 38.9773 65.5469 38.9167 65.831 38.7955C66.1151 38.6742 66.3556 38.5 66.5526 38.2727C66.7495 38.0455 66.8897 37.7727 66.973 37.4545H68.3139C68.2382 37.9697 68.0507 38.4337 67.7514 38.8466C67.456 39.2557 67.0639 39.5814 66.5753 39.8239C66.0904 40.0625 65.526 40.1818 64.8821 40.1818ZM71.6151 34.75V40H70.2741V28.3636H71.6151V32.6364H71.7287C71.9332 32.1856 72.2401 31.8277 72.6491 31.5625C73.062 31.2936 73.6113 31.1591 74.2969 31.1591C74.8916 31.1591 75.4124 31.2784 75.8594 31.517C76.3063 31.7519 76.6529 32.1136 76.8991 32.6023C77.1491 33.0871 77.2741 33.7045 77.2741 34.4545V40H75.9332V34.5455C75.9332 33.8523 75.7533 33.3163 75.3935 32.9375C75.0374 32.5549 74.5431 32.3636 73.9105 32.3636C73.4711 32.3636 73.0772 32.4564 72.7287 32.642C72.384 32.8277 72.1113 33.0985 71.9105 33.4545C71.7135 33.8106 71.6151 34.2424 71.6151 34.75ZM93.6364 28.3636V40H92.2727L85.9318 30.8636H85.8182V40H84.4091V28.3636H85.7727L92.1364 37.5227H92.25V28.3636H93.6364ZM99.8196 40.1818C99.0317 40.1818 98.3404 39.9943 97.7457 39.6193C97.1548 39.2443 96.6927 38.7197 96.3594 38.0455C96.0298 37.3712 95.8651 36.5833 95.8651 35.6818C95.8651 34.7727 96.0298 33.9792 96.3594 33.3011C96.6927 32.6231 97.1548 32.0966 97.7457 31.7216C98.3404 31.3466 99.0317 31.1591 99.8196 31.1591C100.607 31.1591 101.297 31.3466 101.888 31.7216C102.482 32.0966 102.945 32.6231 103.274 33.3011C103.607 33.9792 103.774 34.7727 103.774 35.6818C103.774 36.5833 103.607 37.3712 103.274 38.0455C102.945 38.7197 102.482 39.2443 101.888 39.6193C101.297 39.9943 100.607 40.1818 99.8196 40.1818ZM99.8196 38.9773C100.418 38.9773 100.911 38.8239 101.297 38.517C101.683 38.2102 101.969 37.8068 102.155 37.3068C102.34 36.8068 102.433 36.2652 102.433 35.6818C102.433 35.0985 102.34 34.5549 102.155 34.0511C101.969 33.5473 101.683 33.1402 101.297 32.8295C100.911 32.5189 100.418 32.3636 99.8196 32.3636C99.2211 32.3636 98.7287 32.5189 98.3423 32.8295C97.956 33.1402 97.67 33.5473 97.4844 34.0511C97.2988 34.5549 97.206 35.0985 97.206 35.6818C97.206 36.2652 97.2988 36.8068 97.4844 37.3068C97.67 37.8068 97.956 38.2102 98.3423 38.517C98.7287 38.8239 99.2211 38.9773 99.8196 38.9773ZM107.501 40L104.842 31.2727H106.251L108.138 37.9545H108.229L110.092 31.2727H111.524L113.365 37.9318H113.456L115.342 31.2727H116.751L114.092 40H112.774L110.865 33.2955H110.729L108.82 40H107.501Z" fill="white"/>
</g>
<defs>
<filter id="filter0_d_1_70" x="0.1" y="0.1" width="158.8" height="71.8" filterUnits="userSpaceOnUse" color-interpolation-filters="sRGB">
<feFlood flood-opacity="0" result="BackgroundImageFix"/>
<feColorMatrix in="SourceAlpha" type="matrix" values="0 0 0 0 0 0 0 0 0 0 0 0 0 0 0 0 0 0 127 0" result="hardAlpha"/>
<feOffset dx="5" dy="2"/>
<feGaussianBlur stdDeviation="5.95"/>
<feComposite in2="hardAlpha" operator="out"/>
<feColorMatrix type="matrix" values="0 0 0 0 0.666667 0 0 0 0 0 0 0 0 0 0 0 0 0 1 0"/>
<feBlend mode="normal" in2="BackgroundImageFix" result="effect1_dropShadow_1_70"/>
<feBlend mode="normal" in="SourceGraphic" in2="effect1_dropShadow_1_70" result="shape"/>
</filter>
</defs>
</svg>
