<svg width="138" height="24" viewBox="0 0 138 24" fill="none" xmlns="http://www.w3.org/2000/svg">
<path fill-rule="evenodd" clip-rule="evenodd" d="M7.73121 20.8327C7.22414 21.0974 6.61069 21.0508 6.14942 20.7125C5.68816 20.3743 5.4593 19.8032 5.5593 19.24L6.36864 14.6011L2.96122 11.3357C2.54472 10.9385 2.39208 10.3381 2.56832 9.79024C2.74455 9.24235 3.21861 8.84353 3.78857 8.76365L8.51954 8.08737L10.6554 3.82659C10.9087 3.3156 11.4297 2.99232 12 2.99232C12.5703 2.99232 13.0913 3.3156 13.3445 3.82659L15.4804 8.08737L20.2114 8.76365C20.7814 8.84353 21.2554 9.24235 21.4317 9.79024C21.6079 10.3381 21.4552 10.9385 21.0388 11.3357L17.6313 14.6011L18.4407 19.241C18.5407 19.8042 18.3118 20.3753 17.8505 20.7135C17.3893 21.0518 16.7758 21.0984 16.2688 20.8337L12 18.6278L7.73121 20.8327Z" fill="#FEC84B" stroke="#FEC84B" stroke-width="1.5" stroke-linecap="round" stroke-linejoin="round"/>
<path fill-rule="evenodd" clip-rule="evenodd" d="M37.235 20.8345C36.728 21.0992 36.1145 21.0526 35.6532 20.7143C35.192 20.3761 34.9631 19.805 35.0631 19.2418L35.8725 14.6029L32.465 11.3376C32.0485 10.9404 31.8959 10.3399 32.0721 9.79207C32.2484 9.24419 32.7224 8.84536 33.2924 8.76548L38.0234 8.0892L40.1592 3.82842C40.4125 3.31743 40.9335 2.99416 41.5038 2.99416C42.0741 2.99416 42.5951 3.31743 42.8484 3.82842L44.9843 8.0892L49.7152 8.76548C50.2852 8.84536 50.7592 9.24419 50.9355 9.79207C51.1117 10.3399 50.9591 10.9404 50.5426 11.3376L47.1351 14.6029L47.9445 19.2428C48.0445 19.806 47.8156 20.3771 47.3544 20.7153C46.8931 21.0536 46.2797 21.1002 45.7726 20.8355L41.5038 18.6296L37.235 20.8345Z" fill="#FEC84B" stroke="#FEC84B" stroke-width="1.5" stroke-linecap="round" stroke-linejoin="round"/>
<path fill-rule="evenodd" clip-rule="evenodd" d="M64.2426 20.8345C63.7355 21.0992 63.1221 21.0526 62.6608 20.7143C62.1996 20.3761 61.9707 19.805 62.0707 19.2418L62.8801 14.6029L59.4726 11.3376C59.0561 10.9404 58.9035 10.3399 59.0797 9.79207C59.256 9.24419 59.73 8.84536 60.3 8.76548L65.031 8.0892L67.1668 3.82842C67.4201 3.31743 67.9411 2.99416 68.5114 2.99416C69.0817 2.99416 69.6027 3.31743 69.856 3.82842L71.9918 8.0892L76.7228 8.76548C77.2928 8.84536 77.7668 9.24419 77.9431 9.79207C78.1193 10.3399 77.9667 10.9404 77.5502 11.3376L74.1427 14.6029L74.9521 19.2428C75.0521 19.806 74.8232 20.3771 74.362 20.7153C73.9007 21.0536 73.2873 21.1002 72.7802 20.8355L68.5114 18.6296L64.2426 20.8345Z" fill="#FEC84B" stroke="#FEC84B" stroke-width="1.5" stroke-linecap="round" stroke-linejoin="round"/>
<path fill-rule="evenodd" clip-rule="evenodd" d="M91.2502 20.8345C90.7431 21.0992 90.1297 21.0526 89.6684 20.7143C89.2072 20.3761 88.9783 19.805 89.0783 19.2418L89.8877 14.6029L86.4802 11.3376C86.0637 10.9404 85.9111 10.3399 86.0873 9.79207C86.2636 9.24419 86.7376 8.84536 87.3076 8.76548L92.0385 8.0892L94.1744 3.82842C94.4277 3.31743 94.9487 2.99416 95.519 2.99416C96.0893 2.99416 96.6103 3.31743 96.8636 3.82842L98.9994 8.0892L103.73 8.76548C104.3 8.84536 104.774 9.24419 104.951 9.79207C105.127 10.3399 104.974 10.9404 104.558 11.3376L101.15 14.6029L101.96 19.2428C102.06 19.806 101.831 20.3771 101.37 20.7153C100.908 21.0536 100.295 21.1002 99.7878 20.8355L95.519 18.6296L91.2502 20.8345Z" fill="#FEC84B" stroke="#FEC84B" stroke-width="1.5" stroke-linecap="round" stroke-linejoin="round"/>
<path fill-rule="evenodd" clip-rule="evenodd" d="M120.754 20.8327C120.247 21.0974 119.634 21.0508 119.172 20.7125C118.711 20.3743 118.482 19.8032 118.582 19.24L119.391 14.6011L115.984 11.3357C115.568 10.9385 115.415 10.3381 115.591 9.79024C115.767 9.24235 116.241 8.84353 116.811 8.76365L121.542 8.08737L123.678 3.82659C123.932 3.3156 124.453 2.99232 125.023 2.99232C125.593 2.99232 126.114 3.3156 126.367 3.82659L128.503 8.08737L133.234 8.76365C133.804 8.84353 134.278 9.24235 134.455 9.79024C134.631 10.3381 134.478 10.9385 134.062 11.3357L130.654 14.6011L131.464 19.241C131.564 19.8042 131.335 20.3753 130.873 20.7135C130.412 21.0518 129.799 21.0984 129.292 20.8337L125.023 18.6278L120.754 20.8327Z" fill="#FEC84B" stroke="#FEC84B" stroke-width="1.5" stroke-linecap="round" stroke-linejoin="round"/>
</svg>
